<?xml version="1.0" encoding="UTF-8"?>
<!DOCTYPE svg PUBLIC "-//W3C//DTD SVG 1.1//EN" "http://www.w3.org/Graphics/SVG/1.1/DTD/svg11.dtd">
<svg xmlns="http://www.w3.org/2000/svg" version="1.1" width="512px" height="512px" style="shape-rendering:geometricPrecision; text-rendering:geometricPrecision; image-rendering:optimizeQuality; fill-rule:evenodd; clip-rule:evenodd" xmlns:xlink="http://www.w3.org/1999/xlink">
<g><path style="opacity:1" fill="#c59a67" d="M 154.5,51.5 C 154.333,108.168 154.5,164.834 155,221.5C 158.855,227.469 163.355,227.969 168.5,223C 180.259,213.043 192.092,203.209 204,193.5C 216.864,204.697 230.031,215.531 243.5,226C 246.497,226.755 248.997,225.922 251,223.5C 252.492,166.25 252.992,108.917 252.5,51.5C 298.168,51.3333 343.835,51.5 389.5,52C 400.5,55.4863 406.666,62.9863 408,74.5C 408.5,96.8308 408.667,119.164 408.5,141.5C 355.461,140.404 317.628,163.737 295,211.5C 280.31,250.251 284.31,286.918 307,321.5C 332.514,354.838 366.347,370.838 408.5,369.5C 408.94,393.872 408.44,418.205 407,442.5C 404.071,451.096 398.237,456.596 389.5,459C 265.5,459.667 141.5,459.667 17.5,459C 8.318,456.317 2.318,450.483 -0.5,441.5C -0.5,317.5 -0.5,193.5 -0.5,69.5C 2.318,60.5167 8.318,54.6834 17.5,52C 63.1655,51.5 108.832,51.3333 154.5,51.5 Z"/></g>
<g><path style="opacity:1" fill="#e94748" d="M 154.5,51.5 C 187.167,51.5 219.833,51.5 252.5,51.5C 252.992,108.917 252.492,166.25 251,223.5C 248.997,225.922 246.497,226.755 243.5,226C 230.031,215.531 216.864,204.697 204,193.5C 192.092,203.209 180.259,213.043 168.5,223C 163.355,227.969 158.855,227.469 155,221.5C 154.5,164.834 154.333,108.168 154.5,51.5 Z"/></g>
<g><path style="opacity:1" fill="#b38d5f" d="M 408.5,141.5 C 408.5,142.5 408.5,143.5 408.5,144.5C 358.209,143.885 321.709,165.885 299,210.5C 282.669,252.228 288.003,290.895 315,326.5C 339.706,354.765 370.872,368.099 408.5,366.5C 408.5,367.5 408.5,368.5 408.5,369.5C 366.347,370.838 332.514,354.838 307,321.5C 284.31,286.918 280.31,250.251 295,211.5C 317.628,163.737 355.461,140.404 408.5,141.5 Z"/></g>
<g><path style="opacity:0.996" fill="#d5b890" d="M 408.5,144.5 C 459.099,150.054 492.266,177.054 508,225.5C 509.125,230.646 510.291,235.646 511.5,240.5C 511.5,250.5 511.5,260.5 511.5,270.5C 502.279,318.894 473.945,350.061 426.5,364C 420.552,365.255 414.552,366.088 408.5,366.5C 370.872,368.099 339.706,354.765 315,326.5C 288.003,290.895 282.669,252.228 299,210.5C 321.709,165.885 358.209,143.885 408.5,144.5 Z"/></g>
<g><path style="opacity:1" fill="#e94748" d="M 365.5,199.5 C 371.402,198.962 377.068,199.795 382.5,202C 388.969,207.468 395.136,213.301 401,219.5C 407.337,211.822 414.837,205.655 423.5,201C 438.739,199.208 449.572,205.374 456,219.5C 457.715,227.635 456.048,234.969 451,241.5C 446.167,246.333 441.333,251.167 436.5,256C 444.178,262.337 450.345,269.837 455,278.5C 456.878,294.229 450.378,305.062 435.5,311C 427.61,312.769 420.61,311.102 414.5,306C 409.624,301.292 404.957,296.459 400.5,291.5C 396.015,295.485 391.682,299.651 387.5,304C 373.011,314.11 360.177,312.277 349,298.5C 342.695,288.552 343.028,278.885 350,269.5C 354.708,264.624 359.541,259.957 364.5,255.5C 359.887,249.384 354.72,243.718 349,238.5C 342.337,225.281 344.837,214.114 356.5,205C 359.263,202.626 362.263,200.792 365.5,199.5 Z"/></g>
<g><path style="opacity:1" fill="#2c3231" d="M 65.5,352.5 C 97.8351,352.333 130.168,352.5 162.5,353C 166.559,355.467 167.559,358.967 165.5,363.5C 164.335,364.584 163.002,365.417 161.5,366C 129.5,366.667 97.5,366.667 65.5,366C 60.2464,361.408 60.2464,356.908 65.5,352.5 Z"/></g>
<g><path style="opacity:1" fill="#2c3131" d="M 65.5,400.5 C 97.8351,400.333 130.168,400.5 162.5,401C 169.059,405.245 169.059,409.578 162.5,414C 130.167,414.667 97.8333,414.667 65.5,414C 60.2086,409.423 60.2086,404.923 65.5,400.5 Z"/></g>
<g><path style="opacity:1" fill="#2c3131" d="M 268.5,400.5 C 292.836,400.333 317.169,400.5 341.5,401C 345.696,403.981 346.529,407.814 344,412.5C 343.25,413.126 342.416,413.626 341.5,414C 317.167,414.667 292.833,414.667 268.5,414C 265.317,412.982 263.984,410.815 264.5,407.5C 264.197,404.156 265.53,401.822 268.5,400.5 Z"/></g>
</svg>
